HIERARCHY
ROOT Hips
{
  OFFSET 1.44925e-005 102.336 -0.101585
  CHANNELS 6 Xposition Yposition Zposition Zrotation Xrotation Yrotation
  JOINT LeftUpLeg
  {
    OFFSET 8.9458 -8.66707 0.101652
    CHANNELS 3 Zrotation Xrotation Yrotation
    JOINT LeftLeg
    {
      OFFSET 0 -44.4227 1.3727
      CHANNELS 3 Zrotation Xrotation Yrotation
      JOINT LeftFoot
      {
        OFFSET -0.253549 -42.0924 -1.46059
        CHANNELS 3 Zrotation Xrotation Yrotation
        JOINT LeftToes
        {
          OFFSET -0.04 -4.41509 8.4991
          CHANNELS 3 Zrotation Xrotation Yrotation
          End Site
          {
            OFFSET 0.08 -0.047448 9.77979
          }
        }
      }
    }
  }
  JOINT Spine
  {
    OFFSET 0 11.8905 0
    CHANNELS 3 Zrotation Xrotation Yrotation
    JOINT Spine1
    {
      OFFSET 0 25.6574 0.127663
      CHANNELS 3 Zrotation Xrotation Yrotation
      JOINT RightShoulder
      {
        OFFSET -8.99 -0.362252 -0.22
        CHANNELS 3 Zrotation Xrotation Yrotation
        JOINT RightArm
        {
          OFFSET -10.2827 -0.00338 0.322123
          CHANNELS 3 Zrotation Xrotation Yrotation
          JOINT RightForeArm
          {
            OFFSET -26.364 0.099144 -1.42434
            CHANNELS 3 Zrotation Xrotation Yrotation
            JOINT RightHand
            {
              OFFSET -22.0324 0.085362 1.02216
              CHANNELS 3 Zrotation Xrotation Yrotation
              End Site
              {
                OFFSET -13.3284 -0.6 1.50291
              }
            }
          }
        }
      }
      JOINT LeftShoulder1
      {
        OFFSET 8.99 -0.362252 -0.22
        CHANNELS 3 Zrotation Xrotation Yrotation
        JOINT LeftArm
        {
          OFFSET 10.2827 -0.00337999 0.322123
          CHANNELS 3 Zrotation Xrotation Yrotation
          JOINT LeftForeArm
          {
            OFFSET 26.2597 0.099144 -1.42434
            CHANNELS 3 Zrotation Xrotation Yrotation
            JOINT LeftHand
            {
              OFFSET 22.0902 0.085362 1.02216
              CHANNELS 3 Zrotation Xrotation Yrotation
              End Site
              {
                OFFSET 13.419 -0.6 1.50291
              }
            }
          }
        }
      }
      JOINT Head
      {
        OFFSET 0 8.73416 0.011341
        CHANNELS 3 Zrotation Xrotation Yrotation
        End Site
        {
          OFFSET -0.29 12.7742 2.51395
        }
      }
    }
  }
  JOINT RightUpLeg
  {
    OFFSET -8.9458 -8.66707 0.101652
    CHANNELS 3 Zrotation Xrotation Yrotation
    JOINT RightLeg
    {
      OFFSET 0 -44.4227 1.3727
      CHANNELS 3 Zrotation Xrotation Yrotation
      JOINT RightFoot
      {
        OFFSET 0.253549 -42.0924 -1.46059
        CHANNELS 3 Zrotation Xrotation Yrotation
        JOINT RightToes
        {
          OFFSET 0.04 -4.41509 8.4991
          CHANNELS 3 Zrotation Xrotation Yrotation
          End Site
          {
            OFFSET -0.08 -0.137448 9.77979
          }
        }
      }
    }
  }
}
MOTION
Frames:	8
Frame Time:	0.0333333
98.8113 100.499 2.50605 -5.30083 0.299633 -87.5733 -0.460247 9.69276 2.84566 1.9152 15.1621 19.1458 -7.33628 -22.502 -0.859216 -1.32376e-009 8.75234e-006 -1.47962e-008 4.27344 10.471 -0.884933 -1.83149 2.06421 -0.158018 36.3124 1.84576 0.350232 41.9567 -19.93 11.2832 8.79521 37.5072 7.21291 -8.96739 9.57866 -0.93741 -44.9016 3.56054 -3.40027 -25.9624 -7.92477 2.96043 -0.0738443 32.5403 -20.3957 5.82328 9.61819 -0.917488 -0.688378 -9.64732 -4.99478 -0.463008 -12.0929 -1.00652 -1.18514 15.2774 -2.7454 4.62809 -2.82506 -0.343455 0.0462048 0.000530892 0.662642 
98.8336 100.499 2.49125 -5.39673 0.287757 -87.5386 -0.460999 9.77449 2.82927 1.93265 15.177 19.1213 -7.3891 -22.5028 -0.866191 -1.32376e-009 8.75234e-006 -1.47962e-008 4.33162 10.5478 -0.905611 -1.90073 2.07275 -0.155825 36.3339 1.84577 0.346408 41.9372 -19.9099 11.3238 8.77028 37.6393 7.23197 -8.68953 9.58903 -0.931017 -44.877 3.56054 -3.40027 -25.9722 -7.95082 2.91957 -0.119981 32.4893 -20.3581 5.82328 9.61819 -0.917488 -0.726762 -9.6129 -4.97514 -0.490594 -11.9901 -1.08541 -1.15124 15.2616 -2.72561 4.57167 -2.81182 -0.343451 0.0462048 0.000530892 0.662642 
98.8878 100.496 2.45157 -5.48492 0.261622 -87.4987 -0.462354 9.79467 2.77011 1.95701 15.259 19.1244 -7.45807 -22.511 -0.876004 -1.32376e-009 8.75234e-006 -1.47962e-008 4.37467 10.6081 -0.917978 -1.9722 2.07312 -0.14532 36.4115 1.84577 0.338839 41.85 -19.8437 11.3839 8.69732 37.8619 7.31575 -8.27819 9.59397 -0.757115 -44.8561 3.56114 -3.40028 -25.9954 -7.94987 2.89014 -0.135311 32.3983 -20.3664 5.82328 9.61819 -0.917488 -0.720893 -9.54336 -4.8926 -0.531298 -11.9221 -1.18505 -1.10345 15.2603 -2.65829 4.5474 -2.79963 -0.343447 0.0462048 0.000530892 0.662642 
98.9621 100.487 2.39725 -5.47885 0.216571 -87.4885 -0.493929 9.66958 2.65578 1.97731 15.4074 19.2098 -7.50057 -22.5379 -0.883413 -1.32376e-009 8.75234e-006 -1.47962e-008 4.31055 10.5918 -0.893748 -1.9477 2.05323 -0.127139 36.5197 1.84577 0.329047 41.726 -19.7107 11.4369 8.6228 37.8882 7.44594 -8.08604 9.58643 -0.520345 -44.918 3.56545 -3.40029 -25.9638 -7.89939 2.899 -0.0566889 32.3114 -20.4796 5.82328 9.61819 -0.917488 -0.661869 -9.49018 -4.83609 -0.568681 -11.9991 -1.23383 -1.08308 15.31 -2.58167 4.57747 -2.79824 -0.343447 0.0462048 0.000530892 0.662642 
99.0384 100.474 2.34495 -5.42915 0.16463 -87.495 -0.543368 9.49571 2.52718 1.9936 15.5593 19.3309 -7.51214 -22.5709 -0.887059 -1.32376e-009 8.75234e-006 -1.47962e-008 4.18722 10.5549 -0.846668 -1.86025 2.00492 -0.103943 36.5987 1.84577 0.317844 41.6323 -19.5462 11.4744 8.59762 37.6646 7.56022 -8.08939 9.58111 -0.42165 -45.0476 3.57413 -3.39876 -25.8651 -7.87039 2.89457 0.024377 32.2658 -20.5843 5.82328 9.61819 -0.917488 -0.616456 -9.48762 -4.85711 -0.596405 -12.1323 -1.24605 -1.08472 15.3656 -2.57781 4.56805 -2.77412 -0.34344 0.0462048 0.000530892 0.662642 
99.1037 100.466 2.30272 -5.41925 0.12874 -87.489 -0.572049 9.39297 2.43869 2.00898 15.6659 19.4026 -7.51999 -22.5951 -0.889652 -1.32376e-009 8.75234e-006 -1.47962e-008 4.1259 10.5504 -0.813425 -1.82677 1.94658 -0.0800743 36.6264 1.84577 0.307664 41.5921 -19.3835 11.485 8.5984 37.3746 7.64717 -8.08087 9.58275 -0.438814 -45.1171 3.5752 -3.39099 -25.7977 -7.9005 2.8384 -0.00294945 32.2783 -20.5506 5.82328 9.61819 -0.917488 -0.595736 -9.52415 -4.88161 -0.613174 -12.1881 -1.26793 -1.0758 15.3664 -2.64369 4.49916 -2.7153 -0.343423 0.0462048 0.000530892 0.662642 
99.1577 100.463 2.26634 -5.46842 0.113915 -87.478 -0.573469 9.37611 2.38753 2.02725 15.7408 19.4319 -7.5568 -22.6131 -0.895776 -1.32376e-009 8.75234e-006 -1.47962e-008 4.15211 10.5644 -0.809609 -1.88486 1.92382 -0.0616127 36.6376 1.84577 0.300676 41.5872 -19.2164 11.4729 8.5769 37.163 7.74672 -8.00054 9.58539 -0.433526 -45.0407 3.56335 -3.37936 -25.8444 -7.9623 2.76765 -0.101043 32.3484 -20.4203 5.82328 9.61819 -0.917488 -0.576207 -9.58377 -4.86547 -0.618113 -12.1554 -1.29934 -1.05491 15.3398 -2.67476 4.47017 -2.67054 -0.34341 0.0462048 0.000530892 0.662642 
99.2064 100.457 2.23011 -5.54544 0.103985 -87.4976 -0.578902 9.39366 2.33322 2.04943 15.8216 19.4984 -7.62304 -22.6394 -0.906435 -1.32376e-009 8.75234e-006 -1.47962e-008 4.18188 10.5828 -0.815776 -1.96437 1.94155 -0.047378 36.6682 1.84577 0.295709 41.6029 -19.0488 11.4598 8.53405 37.0358 7.8558 -7.91574 9.58899 -0.43143 -44.8741 3.5467 -3.37167 -25.9693 -8.02755 2.74414 -0.146549 32.4511 -20.338 5.82328 9.61819 -0.917488 -0.589196 -9.66621 -4.88328 -0.608235 -12.1113 -1.30178 -1.05225 15.3575 -2.61784 4.53419 -2.68165 -0.343413 0.0462048 0.000530892 0.662642 
